<svg fill="none" height="109" viewBox="0 0 253 109" width="253" xmlns="http://www.w3.org/2000/svg"><path d="m6.693 108.952c-1.792 0-2.688-1.024-2.688-3.072 0-1.707.512-3.712 1.536-6.016.85333-1.8773 1.792-3.7547 2.816-5.632 1.024-1.792 2.176-3.584 3.456-5.376 4.2667-5.8027 8.448-11.0507 12.544-15.744s8.448-9.1307 13.056-13.312c4.608-4.2667 9.728-8.448 15.36-12.544 1.1947-2.7307 2.2187-5.248 3.072-7.552.9387-2.304 1.6213-4.4373 2.048-6.4-.3413.3413-1.4507 1.4507-3.328 3.328-1.8773 1.792-4.5227 4.3093-7.936 7.552l-7.936 7.424c-3.584 3.4133-6.6133 6.2293-9.088 8.448-2.4747 2.1333-5.0347 4.1813-7.68 6.144-6.0587 4.5227-11.008 6.784-14.848 6.784-.93867 0-1.536-.0427-1.792-.128-2.98667-.6827-4.48-2.8587-4.48-6.528 0-2.816.85333-6.3147 2.56-10.496s4.01067-8.576 6.912-13.184c2.9867-4.6933 6.0587-8.96 9.216-12.8 3.2427-3.9253 6.656-7.68 10.24-11.264 3.6693-3.584 7.3387-6.784 11.008-9.60001 3.6693-2.90133 7.04-5.07733 10.112-6.528 3.072-1.45066 6.3573-2.175991 9.856-2.175991.6827 0 1.408.042666 2.176.127998s1.5787.213333 2.432.384003c1.8773.42667 3.456 1.408 4.736 2.944 1.28 1.45066 1.92 3.24266 1.92 5.376 0 2.1333-.7253 4.3947-2.176 6.784-.6827 1.024-1.5787 1.9627-2.688 2.816-1.1093.768-2.0907 1.2373-2.944 1.408h-.384c-.768 0-1.152-.2987-1.152-.896v-.256c0-.9387.4693-2.0907 1.408-3.456 1.8773-2.9013 2.816-5.54667 2.816-7.936 0-2.38934-1.152-3.584-3.456-3.584-2.1333 0-5.376 1.23733-9.728 3.71199-3.072 1.70667-6.3573 3.88271-9.856 6.52801-3.4133 2.56-6.8267 5.3333-10.24 8.32-3.328 2.9867-6.4 6.016-9.216 9.088s-5.5467 6.528-8.192 10.368c-2.56 3.84-4.6507 7.552-6.272 11.136-1.792 3.9253-2.688 7.0827-2.688 9.472 0 2.304.81067 3.6267 2.432 3.968.4267.0853.8107.1707 1.152.256h.768c2.816 0 5.76-1.024 8.832-3.072s6.3573-4.608 9.856-7.68c3.7547-3.4987 7.296-6.912 10.624-10.24 3.4133-3.4133 6.528-6.784 9.344-10.112l5.632-6.656 2.304-2.688c.512-.5973 1.28-.896 2.304-.896s1.92.2987 2.688.896c.8533.512 1.2373 1.152 1.152 1.92-.3413 1.7067-.896 3.7973-1.664 6.272-.6827 2.3893-1.6213 5.12-2.816 8.192 1.7067-.9387 3.2-1.7493 4.48-2.432 1.3653-.768 2.5173-1.3653 3.456-1.792.6827-.256 1.152-.3413 1.408-.256.256 0 .384.128.384.384s-.2133.64-.64 1.152c-.4267.4267-1.024.8107-1.792 1.152-.9387.512-2.176 1.28-3.712 2.304-1.4507 1.024-3.2427 2.2613-5.376 3.712-2.56 5.888-5.7173 12.032-9.472 18.432-3.6693 6.3147-7.7653 12.416-12.288 18.304-4.4373 5.9733-9.1307 11.3493-14.08 16.128-1.4507 1.365-3.1573 2.731-5.12 4.096-1.8773 1.451-3.7547 2.645-5.632 3.584-1.792.939-3.37067 1.408-4.736 1.408zm7.04-7.808c1.4507 0 2.7307-.469 3.84-1.408 1.1947-.9387 2.0907-1.7067 2.688-2.304 4.9493-4.7787 10.0267-11.136 15.232-19.072s10.0693-16.4267 14.592-25.472c-4.096 3.328-7.68 6.3573-10.752 9.088s-5.888 5.4613-8.448 8.192c-2.4747 2.6453-4.9493 5.504-7.424 8.576-2.3893 3.072-4.992 6.5707-7.808 10.496-1.792 2.3893-3.072 4.9493-3.84 7.68-.0853.256-.1707.5547-.256.896v1.152c0 1.451.7253 2.176 2.176 2.176zm48.429-35.84c-1.6213 0-2.6027-.2987-2.944-.896l-.128-.384c0-.512.2987-.9387.896-1.28.8533-.5973 3.712-.896 8.576-.896 2.9013 0 6.4.128 10.496.384 2.6453.1707 4.3093.4693 4.992.896l.128.128c-.1707.1707-.7253.384-1.664.64-.5973.0853-3.4987.3413-8.704.768l-11.008.64zm55.082-8.448c-.768 0-1.152-.4693-1.152-1.408s.299-1.8773.896-2.816c.683-.9387 1.408-1.408 2.176-1.408.427-.0853.896-.128 1.408-.128.597 0 1.323-.0427 2.176-.128h2.048c.597 0 1.067-.0427 1.408-.128h.128c.512 0 .811.384.896 1.152.341.3413.64.512.896.512 8.533-1.6213 17.067-4.736 25.6-9.344 5.376-2.9867 9.429-6.1867 12.16-9.6s4.096-6.784 4.096-10.112c0-4.2667-2.219-7.8507-6.656-10.752-4.437-2.90134-10.624-4.56534-18.56-4.99201-.512-.08533-1.152-.12799-1.92-.12799-.683 0-1.493 0-2.432 0-8.363 0-16.341 1.32266-23.936 3.968-7.509 2.56-14.379 6.3147-20.608 11.264-6.144 4.864-11.392 10.752-15.744 17.664-.3413.512-.6827.768-1.024.768-.4267 0-.64-.4693-.64-1.408 0-1.6213.5547-3.2427 1.664-4.864 4.2667-6.5707 9.7707-12.032 16.512-16.384 6.741-4.4373 14.165-7.7653 22.272-9.984 8.192-2.304 16.555-3.456 25.088-3.456 6.741 0 12.757.72533 18.048 2.176 5.035 1.45066 8.875 3.456 11.52 6.016 2.731 2.56 4.096 5.4613 4.096 8.704 0 3.4133-1.579 6.9973-4.736 10.752s-7.893 7.3813-14.208 10.88c-3.328 1.792-6.955 3.4987-10.88 5.12-3.84 1.536-7.68 2.944-11.52 4.224-3.84 1.1947-7.424 2.1333-10.752 2.816-3.243.6827-5.973 1.024-8.192 1.024zm-15.36 30.336c-4.7787 0-7.168-2.304-7.168-6.912 0-1.1093.128-2.304.384-3.584 1.1947-7.168 3.84-14.336 7.936-21.504 4.181-7.168 9.216-14.72 15.104-22.656l3.968-5.632c.171-.1707.256-.4267.256-.768 0-.1707-.043-.384-.128-.64 0-.256 0-.4267 0-.512 0-1.1093.981-2.176 2.944-3.2 1.024-1.7067 2.347-2.9867 3.968-3.84s3.157-1.28 4.608-1.28c2.219 0 3.328.7253 3.328 2.176 0 .9387-.427 1.8347-1.28 2.688-.341.3413-.811.8533-1.408 1.536-.597.5973-1.365 1.3653-2.304 2.304-2.901 2.9867-5.632 5.9307-8.192 8.832-2.475 2.816-4.821 5.5893-7.04 8.32v-.128c-9.728 12.288-15.744 23.7227-18.048 34.304-.0853.4267-.1707.8107-.256 1.152v.768c0 1.6213.2987 2.9867.896 4.096.597 1.1947 1.28 1.8347 2.048 1.92.683.0853 1.237.256 1.664.512s.725.5547.896.896v.256c0 .5973-.725.896-2.176.896zm59.524-.64c-1.792 0-2.56-.896-2.304-2.688.512-3.2427 1.408-6.4853 2.688-9.728.683-1.7067 1.536-3.6693 2.56-5.888 1.109-2.2187 2.389-4.6933 3.84-7.424.768-1.4507 1.408-2.7307 1.92-3.84.597-1.1093 1.067-2.0053 1.408-2.688.597-1.1947 1.195-2.4747 1.792-3.84.683-1.3653 1.365-2.8587 2.048-4.48 3.243-7.0827 6.016-12.6293 8.32-16.64 2.389-4.096 4.949-6.9973 7.68-8.704.171-.1707.64-.1707 1.408 0 .768.0853 1.493.256 2.176.512.768.256 1.237.5547 1.408.896.256.5973.384 1.4507.384 2.56 0 3.4133-1.579 7.5093-4.736 12.288-1.707 2.56-3.883 5.376-6.528 8.448-2.56 2.9867-5.589 6.2293-9.088 9.728l-2.304 3.712c-2.56 4.096-4.565 7.5947-6.016 10.496-1.365 2.9013-1.877 5.4613-1.536 7.68.171.512.384.768.64.768s.683-.2133 1.28-.64 1.195-.9387 1.792-1.536c.683-.5973 1.323-1.3227 1.92-2.176.427-.4267.768-.896 1.024-1.408.341-.512.683-.9813 1.024-1.408.512-.9387 1.024-1.7067 1.536-2.304 1.621-2.7307 2.987-4.6507 4.096-5.76 1.877-1.8773 3.541-2.816 4.992-2.816 1.707 0 3.2.9387 4.48 2.816 1.365 1.792 2.816 4.3947 4.352 7.808 1.109 2.56 2.133 4.5227 3.072 5.888.939 1.28 1.835 1.92 2.688 1.92s1.835-.512 2.944-1.536c1.024-.9387 1.92-1.4507 2.688-1.536.512.5973.469 1.3653-.128 2.304-.597.8533-1.493 1.664-2.688 2.432-1.109.8533-2.219 1.536-3.328 2.048s-1.963.6827-2.56.512c-2.389-.6827-4.267-1.8773-5.632-3.584-1.28-1.792-2.56-4.096-3.84-6.912-.427-.9387-.811-1.7493-1.152-2.432-.341-.768-.683-1.3653-1.024-1.792-.597-.8533-1.408-1.28-2.432-1.28-.768 0-1.664.384-2.688 1.152-1.024.8533-2.048 1.8773-3.072 3.072-1.024 1.1093-2.005 2.4747-2.944 4.096-.597.8533-1.067 1.536-1.408 2.048-.256.4267-.469.7253-.64.896-.427.5973-1.109 1.4507-2.048 2.56-.853 1.1947-1.877 2.6453-3.072 4.352-.427.512-1.109.9813-2.048 1.408-.853.4267-1.707.64-2.56.64zm15.616-36.736c.256.1707.896-.2133 1.92-1.152 1.024-1.024 2.176-2.304 3.456-3.84 1.365-1.6213 2.688-3.2853 3.968-4.992 1.365-1.792 2.432-3.3707 3.2-4.736 2.645-4.5227 3.968-7.5093 3.968-8.96 0-.5973-.213-1.024-.64-1.28-.853-.6827-2.005-.2987-3.456 1.152-1.451 1.3653-2.901 3.2-4.352 5.504-1.451 2.2187-2.688 4.4373-3.712 6.656-.597 1.3653-1.237 2.9013-1.92 4.608-.597 1.7067-1.109 3.2427-1.536 4.608-.427 1.28-.725 2.0907-.896 2.432zm39.589 1.152c-1.109 0-1.664-.256-1.664-.768 0-.4267.299-1.024.896-1.792.683-.8533 1.451-1.5787 2.304-2.176 1.877-1.1947 3.328-2.2187 4.352-3.072 1.109-.8533 2.432-2.304 3.968-4.352.085.1707.128.512.128 1.024 0 1.1093-.469 2.4747-1.408 4.096-.853 1.536-1.835 2.944-2.944 4.224s-2.091 2.0907-2.944 2.432c-.768.256-1.664.384-2.688.384zm-11.392 31.36c-.683 0-1.323-.256-1.92-.768s-.896-1.1947-.896-2.048c0-1.792 1.237-5.0773 3.712-9.856l1.408-2.816c.171-.1707.384-.5973.64-1.28.341-.6827.811-1.5787 1.408-2.688.597-1.1947 1.067-2.2613 1.408-3.2s.597-1.8347.768-2.688c0-.0853.171-.256.512-.512s.683-.4693 1.024-.64l.768-.128c.683 0 1.237.128 1.664.384.512.256.683.5973.512 1.024-.597 1.28-1.109 2.3893-1.536 3.328s-.768 1.7493-1.024 2.432h-.128c-.939 2.1333-1.749 4.1813-2.432 6.144-.597 1.8773-.853 3.6693-.768 5.376l.128 3.456c-.085.8533-.384 1.5787-.896 2.176-.341.256-.811.5547-1.408.896-.597.4267-1.365.8533-2.304 1.28-.085.0853-.299.128-.64.128zm12.592 5.12c-.939 0-1.749-.2987-2.432-.896-.597-.5973-.853-1.3227-.768-2.176.171-3.4987.811-6.8693 1.92-10.112 1.195-3.2427 2.901-7.1253 5.12-11.648.256-.5973.469-1.1093.64-1.536.256-.512.469-.9387.64-1.28 1.877-4.0107 3.797-7.8507 5.76-11.52s3.925-7.2533 5.888-10.752l1.792-3.2c2.048-3.6693 3.84-6.6133 5.376-8.832 1.536-2.304 3.072-3.968 4.608-4.992 1.963-1.1947 3.157-1.792 3.584-1.792.683 0 1.365.5973 2.048 1.792.427.8533-.427 2.944-2.56 6.272-1.109 1.7067-2.517 3.84-4.224 6.4-1.621 2.56-3.584 5.4613-5.888 8.704-.427.5973-1.152 1.664-2.176 3.2-.939 1.4507-2.219 3.3707-3.84 5.76s-3.029 4.5653-4.224 6.528c-1.195 1.8773-2.176 3.5413-2.944 4.992-1.536 2.816-2.987 5.8453-4.352 9.088-1.365 3.1573-2.048 5.632-2.048 7.424 0 1.6213.64 2.432 1.92 2.432 2.048 0 5.333-1.7493 9.856-5.248.512.0853.768.3413.768.768 0 .3413-.427.9387-1.28 1.792-.768.768-1.749 1.5787-2.944 2.432-1.109.9387-2.432 2.0053-3.968 3.2l-2.048 1.536c-1.365 1.1093-2.773 1.664-4.224 1.664z" fill="#fff"/></svg>